# xmcd
#
# Track frame offsets: 
#        150
#        14972
#        25707
#        39400
#        56557
#        76587
#        92527
#        108237
#        124457
#        139065
#
# Disc length: 2049 seconds
#
# Revision: 5
# Processed by: cddbd v1.5.2PL0 Copyright (c) Steve Scherf et al.
# Submitted via: ExactAudioCopyFreeDBPlugin 1.0
#
DISCID=7a07ff0a
DTITLE=Lisa Brokop - Lisa Brokop
DYEAR=1996
DGENRE=Country
TTITLE0=Language Of Love
TTITLE1=Before He Kissed Me
TTITLE2=She Can`t Save Him
TTITLE3=I Know A Heartache When I See One
TTITLE4=Now That We`re Not A Family
TTITLE5=West Of Crazy
TTITLE6=I Know Too Much
TTITLE7=At The End Of The Day
TTITLE8=That Summer
TTITLE9=From The Heart
EXTD=
EXTT0=
EXTT1=
EXTT2=
EXTT3=
EXTT4=
EXTT5=
EXTT6=
EXTT7=
EXTT8=
EXTT9=
PLAYORDER=
